<mxfile host="app.diagrams.net" agent="Mozilla/5.0 (Windows NT 10.0; Win64; x64) AppleWebKit/537.36 (KHTML, like Gecko) Chrome/141.0.0.0 Safari/537.36 Edg/141.0.0.0" version="28.2.5">
  <diagram name="Página-1" id="xs922Yzf5eoJinoIZsJR">
    <mxGraphModel dx="2245" dy="786" grid="1" gridSize="10" guides="1" tooltips="1" connect="1" arrows="1" fold="1" page="1" pageScale="1" pageWidth="827" pageHeight="1169" background="#ffffff" math="0" shadow="0">
      <root>
        <mxCell id="0" />
        <mxCell id="1" parent="0" />
        <mxCell id="z9LzX9pJ9xgeFgX2d-fA-12" value="" style="edgeStyle=orthogonalEdgeStyle;rounded=0;orthogonalLoop=1;jettySize=auto;html=1;" edge="1" parent="1" source="z9LzX9pJ9xgeFgX2d-fA-1" target="z9LzX9pJ9xgeFgX2d-fA-2">
          <mxGeometry relative="1" as="geometry" />
        </mxCell>
        <mxCell id="z9LzX9pJ9xgeFgX2d-fA-1" value="Início" style="ellipse;whiteSpace=wrap;html=1;fillColor=#f8cecc;strokeColor=#b85450;" vertex="1" parent="1">
          <mxGeometry x="354" y="20" width="120" height="80" as="geometry" />
        </mxCell>
        <mxCell id="z9LzX9pJ9xgeFgX2d-fA-49" value="" style="edgeStyle=orthogonalEdgeStyle;rounded=0;orthogonalLoop=1;jettySize=auto;html=1;" edge="1" parent="1" source="z9LzX9pJ9xgeFgX2d-fA-2" target="z9LzX9pJ9xgeFgX2d-fA-40">
          <mxGeometry relative="1" as="geometry" />
        </mxCell>
        <mxCell id="z9LzX9pJ9xgeFgX2d-fA-2" value="Ler num" style="shape=parallelogram;perimeter=parallelogramPerimeter;whiteSpace=wrap;html=1;fixedSize=1;fillColor=#dae8fc;strokeColor=#6c8ebf;" vertex="1" parent="1">
          <mxGeometry x="354" y="150" width="120" height="60" as="geometry" />
        </mxCell>
        <mxCell id="z9LzX9pJ9xgeFgX2d-fA-14" value="" style="edgeStyle=orthogonalEdgeStyle;rounded=0;orthogonalLoop=1;jettySize=auto;html=1;" edge="1" parent="1" source="z9LzX9pJ9xgeFgX2d-fA-3" target="z9LzX9pJ9xgeFgX2d-fA-4">
          <mxGeometry relative="1" as="geometry" />
        </mxCell>
        <mxCell id="z9LzX9pJ9xgeFgX2d-fA-34" value="Não" style="edgeLabel;html=1;align=center;verticalAlign=middle;resizable=0;points=[];" vertex="1" connectable="0" parent="z9LzX9pJ9xgeFgX2d-fA-14">
          <mxGeometry x="-0.2079" y="-2" relative="1" as="geometry">
            <mxPoint x="3" y="-2" as="offset" />
          </mxGeometry>
        </mxCell>
        <mxCell id="z9LzX9pJ9xgeFgX2d-fA-15" value="" style="edgeStyle=orthogonalEdgeStyle;rounded=0;orthogonalLoop=1;jettySize=auto;html=1;" edge="1" parent="1" source="z9LzX9pJ9xgeFgX2d-fA-3" target="z9LzX9pJ9xgeFgX2d-fA-6">
          <mxGeometry relative="1" as="geometry" />
        </mxCell>
        <mxCell id="z9LzX9pJ9xgeFgX2d-fA-35" value="Sim" style="edgeLabel;html=1;align=center;verticalAlign=middle;resizable=0;points=[];" vertex="1" connectable="0" parent="z9LzX9pJ9xgeFgX2d-fA-15">
          <mxGeometry x="-0.4" y="1" relative="1" as="geometry">
            <mxPoint as="offset" />
          </mxGeometry>
        </mxCell>
        <mxCell id="z9LzX9pJ9xgeFgX2d-fA-3" value="num % 3 = 0&lt;div&gt;||&lt;/div&gt;&lt;div&gt;num % 5 = 0&lt;/div&gt;" style="rhombus;whiteSpace=wrap;html=1;fillColor=#fff2cc;strokeColor=#d6b656;" vertex="1" parent="1">
          <mxGeometry x="319.5" y="440" width="189" height="100" as="geometry" />
        </mxCell>
        <mxCell id="z9LzX9pJ9xgeFgX2d-fA-45" style="edgeStyle=orthogonalEdgeStyle;rounded=0;orthogonalLoop=1;jettySize=auto;html=1;" edge="1" parent="1" source="z9LzX9pJ9xgeFgX2d-fA-4" target="z9LzX9pJ9xgeFgX2d-fA-2">
          <mxGeometry relative="1" as="geometry">
            <Array as="points">
              <mxPoint x="200" y="180" />
            </Array>
          </mxGeometry>
        </mxCell>
        <mxCell id="z9LzX9pJ9xgeFgX2d-fA-4" value="Escrever &quot;O número não é múltiplo de 3 nem de 5&quot;" style="shape=parallelogram;perimeter=parallelogramPerimeter;whiteSpace=wrap;html=1;fixedSize=1;fillColor=#dae8fc;strokeColor=#6c8ebf;" vertex="1" parent="1">
          <mxGeometry x="100" y="460" width="180" height="60" as="geometry" />
        </mxCell>
        <mxCell id="z9LzX9pJ9xgeFgX2d-fA-16" value="" style="edgeStyle=orthogonalEdgeStyle;rounded=0;orthogonalLoop=1;jettySize=auto;html=1;" edge="1" parent="1" source="z9LzX9pJ9xgeFgX2d-fA-6" target="z9LzX9pJ9xgeFgX2d-fA-8">
          <mxGeometry relative="1" as="geometry" />
        </mxCell>
        <mxCell id="z9LzX9pJ9xgeFgX2d-fA-37" value="Sim" style="edgeLabel;html=1;align=center;verticalAlign=middle;resizable=0;points=[];" vertex="1" connectable="0" parent="z9LzX9pJ9xgeFgX2d-fA-16">
          <mxGeometry x="-0.5672" y="-1" relative="1" as="geometry">
            <mxPoint as="offset" />
          </mxGeometry>
        </mxCell>
        <mxCell id="z9LzX9pJ9xgeFgX2d-fA-22" style="edgeStyle=orthogonalEdgeStyle;rounded=0;orthogonalLoop=1;jettySize=auto;html=1;" edge="1" parent="1" source="z9LzX9pJ9xgeFgX2d-fA-6" target="z9LzX9pJ9xgeFgX2d-fA-21">
          <mxGeometry relative="1" as="geometry" />
        </mxCell>
        <mxCell id="z9LzX9pJ9xgeFgX2d-fA-36" value="Não" style="edgeLabel;html=1;align=center;verticalAlign=middle;resizable=0;points=[];" vertex="1" connectable="0" parent="z9LzX9pJ9xgeFgX2d-fA-22">
          <mxGeometry x="-0.3823" y="1" relative="1" as="geometry">
            <mxPoint x="1" as="offset" />
          </mxGeometry>
        </mxCell>
        <mxCell id="z9LzX9pJ9xgeFgX2d-fA-6" value="num % 3 = 0" style="rhombus;whiteSpace=wrap;html=1;fillColor=#fff2cc;strokeColor=#d6b656;" vertex="1" parent="1">
          <mxGeometry x="319.5" y="590" width="189" height="100" as="geometry" />
        </mxCell>
        <mxCell id="z9LzX9pJ9xgeFgX2d-fA-27" value="" style="edgeStyle=orthogonalEdgeStyle;rounded=0;orthogonalLoop=1;jettySize=auto;html=1;" edge="1" parent="1" source="z9LzX9pJ9xgeFgX2d-fA-8" target="z9LzX9pJ9xgeFgX2d-fA-24">
          <mxGeometry relative="1" as="geometry" />
        </mxCell>
        <mxCell id="z9LzX9pJ9xgeFgX2d-fA-8" value="Escrever &quot;O número é múltiplo de 3&lt;span style=&quot;background-color: transparent; color: light-dark(rgb(0, 0, 0), rgb(255, 255, 255));&quot;&gt;&quot;&lt;/span&gt;" style="shape=parallelogram;perimeter=parallelogramPerimeter;whiteSpace=wrap;html=1;fixedSize=1;fillColor=#dae8fc;strokeColor=#6c8ebf;" vertex="1" parent="1">
          <mxGeometry x="110" y="740" width="180" height="60" as="geometry" />
        </mxCell>
        <mxCell id="z9LzX9pJ9xgeFgX2d-fA-11" value="Fim" style="ellipse;whiteSpace=wrap;html=1;fillColor=#d5e8d4;strokeColor=#82b366;" vertex="1" parent="1">
          <mxGeometry x="600" y="400" width="120" height="80" as="geometry" />
        </mxCell>
        <mxCell id="z9LzX9pJ9xgeFgX2d-fA-48" style="edgeStyle=orthogonalEdgeStyle;rounded=0;orthogonalLoop=1;jettySize=auto;html=1;" edge="1" parent="1" source="z9LzX9pJ9xgeFgX2d-fA-21" target="z9LzX9pJ9xgeFgX2d-fA-2">
          <mxGeometry relative="1" as="geometry">
            <Array as="points">
              <mxPoint x="640" y="1020" />
              <mxPoint x="-250" y="1020" />
              <mxPoint x="-250" y="180" />
            </Array>
          </mxGeometry>
        </mxCell>
        <mxCell id="z9LzX9pJ9xgeFgX2d-fA-21" value="Escrever &quot;O número não é múltiplo de 3, mas é múltiplo de 5&quot;" style="shape=parallelogram;perimeter=parallelogramPerimeter;whiteSpace=wrap;html=1;fixedSize=1;fillColor=#dae8fc;strokeColor=#6c8ebf;" vertex="1" parent="1">
          <mxGeometry x="550" y="740" width="180" height="60" as="geometry" />
        </mxCell>
        <mxCell id="z9LzX9pJ9xgeFgX2d-fA-28" value="" style="edgeStyle=orthogonalEdgeStyle;rounded=0;orthogonalLoop=1;jettySize=auto;html=1;" edge="1" parent="1" source="z9LzX9pJ9xgeFgX2d-fA-24" target="z9LzX9pJ9xgeFgX2d-fA-25">
          <mxGeometry relative="1" as="geometry" />
        </mxCell>
        <mxCell id="z9LzX9pJ9xgeFgX2d-fA-38" value="Sim" style="edgeLabel;html=1;align=center;verticalAlign=middle;resizable=0;points=[];" vertex="1" connectable="0" parent="z9LzX9pJ9xgeFgX2d-fA-28">
          <mxGeometry x="0.2868" y="1" relative="1" as="geometry">
            <mxPoint as="offset" />
          </mxGeometry>
        </mxCell>
        <mxCell id="z9LzX9pJ9xgeFgX2d-fA-29" value="" style="edgeStyle=orthogonalEdgeStyle;rounded=0;orthogonalLoop=1;jettySize=auto;html=1;" edge="1" parent="1" source="z9LzX9pJ9xgeFgX2d-fA-24" target="z9LzX9pJ9xgeFgX2d-fA-26">
          <mxGeometry relative="1" as="geometry" />
        </mxCell>
        <mxCell id="z9LzX9pJ9xgeFgX2d-fA-39" value="Não" style="edgeLabel;html=1;align=center;verticalAlign=middle;resizable=0;points=[];" vertex="1" connectable="0" parent="z9LzX9pJ9xgeFgX2d-fA-29">
          <mxGeometry x="0.0744" y="-1" relative="1" as="geometry">
            <mxPoint as="offset" />
          </mxGeometry>
        </mxCell>
        <mxCell id="z9LzX9pJ9xgeFgX2d-fA-24" value="num % 5 = 0" style="rhombus;whiteSpace=wrap;html=1;fillColor=#fff2cc;strokeColor=#d6b656;" vertex="1" parent="1">
          <mxGeometry x="105.5" y="870" width="189" height="100" as="geometry" />
        </mxCell>
        <mxCell id="z9LzX9pJ9xgeFgX2d-fA-46" style="edgeStyle=orthogonalEdgeStyle;rounded=0;orthogonalLoop=1;jettySize=auto;html=1;" edge="1" parent="1" source="z9LzX9pJ9xgeFgX2d-fA-25" target="z9LzX9pJ9xgeFgX2d-fA-2">
          <mxGeometry relative="1" as="geometry">
            <Array as="points">
              <mxPoint y="180" />
            </Array>
          </mxGeometry>
        </mxCell>
        <mxCell id="z9LzX9pJ9xgeFgX2d-fA-25" value="Escrever &quot;O número também é múltiplo de 5&lt;span style=&quot;background-color: transparent; color: light-dark(rgb(0, 0, 0), rgb(255, 255, 255));&quot;&gt;&quot;&lt;/span&gt;" style="shape=parallelogram;perimeter=parallelogramPerimeter;whiteSpace=wrap;html=1;fixedSize=1;fillColor=#dae8fc;strokeColor=#6c8ebf;" vertex="1" parent="1">
          <mxGeometry x="-100" y="890" width="180" height="60" as="geometry" />
        </mxCell>
        <mxCell id="z9LzX9pJ9xgeFgX2d-fA-47" style="edgeStyle=orthogonalEdgeStyle;rounded=0;orthogonalLoop=1;jettySize=auto;html=1;" edge="1" parent="1" source="z9LzX9pJ9xgeFgX2d-fA-26" target="z9LzX9pJ9xgeFgX2d-fA-2">
          <mxGeometry relative="1" as="geometry">
            <Array as="points">
              <mxPoint x="414" y="1020" />
              <mxPoint x="-250" y="1020" />
              <mxPoint x="-250" y="180" />
            </Array>
          </mxGeometry>
        </mxCell>
        <mxCell id="z9LzX9pJ9xgeFgX2d-fA-26" value="Escrever &quot;Mas o número não é múltiplo de 5&lt;span style=&quot;background-color: transparent; color: light-dark(rgb(0, 0, 0), rgb(255, 255, 255));&quot;&gt;&quot;&lt;/span&gt;" style="shape=parallelogram;perimeter=parallelogramPerimeter;whiteSpace=wrap;html=1;fixedSize=1;fillColor=#dae8fc;strokeColor=#6c8ebf;" vertex="1" parent="1">
          <mxGeometry x="324" y="890" width="180" height="60" as="geometry" />
        </mxCell>
        <mxCell id="z9LzX9pJ9xgeFgX2d-fA-43" value="" style="edgeStyle=orthogonalEdgeStyle;rounded=0;orthogonalLoop=1;jettySize=auto;html=1;" edge="1" parent="1" source="z9LzX9pJ9xgeFgX2d-fA-40" target="z9LzX9pJ9xgeFgX2d-fA-41">
          <mxGeometry relative="1" as="geometry" />
        </mxCell>
        <mxCell id="z9LzX9pJ9xgeFgX2d-fA-44" value="Sim" style="edgeLabel;html=1;align=center;verticalAlign=middle;resizable=0;points=[];" vertex="1" connectable="0" parent="z9LzX9pJ9xgeFgX2d-fA-43">
          <mxGeometry x="-0.4545" relative="1" as="geometry">
            <mxPoint as="offset" />
          </mxGeometry>
        </mxCell>
        <mxCell id="z9LzX9pJ9xgeFgX2d-fA-50" value="" style="edgeStyle=orthogonalEdgeStyle;rounded=0;orthogonalLoop=1;jettySize=auto;html=1;" edge="1" parent="1" source="z9LzX9pJ9xgeFgX2d-fA-40" target="z9LzX9pJ9xgeFgX2d-fA-3">
          <mxGeometry relative="1" as="geometry" />
        </mxCell>
        <mxCell id="z9LzX9pJ9xgeFgX2d-fA-40" value="num == 0" style="rhombus;whiteSpace=wrap;html=1;fillColor=#fff2cc;strokeColor=#d6b656;" vertex="1" parent="1">
          <mxGeometry x="319.5" y="260" width="189" height="100" as="geometry" />
        </mxCell>
        <mxCell id="z9LzX9pJ9xgeFgX2d-fA-42" value="" style="edgeStyle=orthogonalEdgeStyle;rounded=0;orthogonalLoop=1;jettySize=auto;html=1;" edge="1" parent="1" source="z9LzX9pJ9xgeFgX2d-fA-41" target="z9LzX9pJ9xgeFgX2d-fA-11">
          <mxGeometry relative="1" as="geometry" />
        </mxCell>
        <mxCell id="z9LzX9pJ9xgeFgX2d-fA-41" value="Escrever &quot;A roda na tua cabeça gira, mas o hamster está morto&quot;" style="shape=parallelogram;perimeter=parallelogramPerimeter;whiteSpace=wrap;html=1;fixedSize=1;fillColor=#dae8fc;strokeColor=#6c8ebf;" vertex="1" parent="1">
          <mxGeometry x="570" y="280" width="180" height="60" as="geometry" />
        </mxCell>
      </root>
    </mxGraphModel>
  </diagram>
</mxfile>
